<svg xmlns="http://www.w3.org/2000/svg" viewBox="0 0 172.17 170.05"><defs><style>.cls-1{fill:#072c58}.cls-2{fill:#35879d}</style></defs><g id="Layer_2" data-name="Layer 2"><g id="Layer_2-2" data-name="Layer 2"><path class="cls-1" d="M85.26 136.09L78.9 27.04 64.01 0l21.25 18.51v117.58z"/><path class="cls-1" d="M0 124.41l69.86-15.46 11.24 2.97-6.65-100.24-6.69 91.8L0 124.41zM86.91 136.09l6.36-109.05L108.15 0 86.91 18.51v117.58z"/><path class="cls-1" d="M172.17 124.41l-69.86-15.46-11.24 2.97 6.65-100.24 6.69 91.8 67.76 20.93z"/><path class="cls-2" d="M17 169.84l-1.06-3.24h-5.72l-1.13 3.24H6.74L13 154.27h.56l5.79 15.57zm-3.84-11.54l-2.38 6.76h4.56zM26 160.18h-1.3v-1.57H26v-2.35l2-.77v3.11h3.08v1.57H28v5.58a3.27 3.27 0 0 0 .48 2 1.85 1.85 0 0 0 1.54.6 3.68 3.68 0 0 0 1.58-.39l.29 1.75a11 11 0 0 1-2.72.31 2.94 2.94 0 0 1-2.25-1 3.54 3.54 0 0 1-.92-2.5zM38.47 166.66V154h2v12.32a1.92 1.92 0 0 0 .52 1.42 1.84 1.84 0 0 0 1.36.52V170q-3.88 0-3.88-3.34zM55.5 168.55a4.4 4.4 0 0 1-3.66 1.5 3.15 3.15 0 0 1-2.29-1 3.22 3.22 0 0 1-1-2.38 3.56 3.56 0 0 1 1.49-2.89 6 6 0 0 1 3.81-1.18 4.47 4.47 0 0 1 1.43.27q0-2.73-2.43-2.73a3.89 3.89 0 0 0-2.87 1l-.84-1.67a4.91 4.91 0 0 1 1.57-.79 6.09 6.09 0 0 1 1.91-.33 4.85 4.85 0 0 1 3.55 1.11A4.85 4.85 0 0 1 57.3 163v4a2.06 2.06 0 0 0 .88 2v1a3.75 3.75 0 0 1-1.82-.35 2 2 0 0 1-.86-1.1zm-.19-4.22a7.22 7.22 0 0 0-1.32-.21 3.78 3.78 0 0 0-2.46.78 2.31 2.31 0 0 0-1 1.83q0 1.75 2.07 1.75a3.39 3.39 0 0 0 2.71-1.48zM71.85 169.84v-6.53a4.33 4.33 0 0 0-.54-2.51 2.12 2.12 0 0 0-1.81-.72 3 3 0 0 0-1.43.41 3.17 3.17 0 0 0-1.14 1v8.35h-2v-11.23h1.36l.63 1.45a3.46 3.46 0 0 1 3.22-1.66q3.69 0 3.69 4.49v7zM81.9 160.18h-1.3v-1.57h1.3v-2.35l2-.77v3.11H87v1.57h-3.11v5.58a3.27 3.27 0 0 0 .48 2 1.85 1.85 0 0 0 1.54.6 3.68 3.68 0 0 0 1.58-.39l.29 1.75a11.05 11.05 0 0 1-2.72.31 2.94 2.94 0 0 1-2.25-1 3.54 3.54 0 0 1-.92-2.5zM95.17 169.84v-9.55h-1.54v-1.68h3.53v11.23zm1.09-15.48a1.23 1.23 0 1 1 0 2.46 1.18 1.18 0 0 1-.87-.36 1.19 1.19 0 0 1-.36-.88 1.22 1.22 0 0 1 1.23-1.23zM104.11 169.17l.7-1.89a5.41 5.41 0 0 0 2.68 1.09q1.84 0 1.84-1.55 0-1.11-1.78-1.91a14.72 14.72 0 0 1-1.85-1 4.11 4.11 0 0 1-.83-.74 2.93 2.93 0 0 1-.52-.88 2.86 2.86 0 0 1-.17-1 2.57 2.57 0 0 1 1-2.16 4.19 4.19 0 0 1 2.63-.78 8.45 8.45 0 0 1 3.09.78l-.57 1.85a3.81 3.81 0 0 0-2.38-.94 2.06 2.06 0 0 0-1.2.34 1 1 0 0 0-.49.85 1.77 1.77 0 0 0 1.23 1.63l1.43.65a5 5 0 0 1 1.91 1.36 3 3 0 0 1 .6 1.92 2.87 2.87 0 0 1-1.06 2.36 4.56 4.56 0 0 1-2.94.85 6.68 6.68 0 0 1-3.32-.83z"/><path class="cls-1" d="M119.92 169.84h-2.18V159q2.09-.07 2.67-.07a4.75 4.75 0 0 1 3.6 1.38 5.08 5.08 0 0 1 1.33 3.67q-.01 5.86-5.42 5.86zm-.7-9.51v8.1a8.45 8.45 0 0 0 1.23.07 2.9 2.9 0 0 0 2.44-1.17 5.24 5.24 0 0 0 .89-3.24q0-3.85-3.46-3.85zM128.51 160.33v3h3.58v1.26h-3.58v3.91h4.91v1.33H127V159h6.48v1.33zM134.66 169.34l.54-1.36a3.7 3.7 0 0 0 1 .51 3.58 3.58 0 0 0 1.11.2 2 2 0 0 0 1.39-.47 1.55 1.55 0 0 0 .53-1.21 1.9 1.9 0 0 0-.29-1 3.57 3.57 0 0 0-1.47-1l-.87-.41a3.49 3.49 0 0 1-1.55-1.23 3.19 3.19 0 0 1-.44-1.71 2.63 2.63 0 0 1 .86-2 3.11 3.11 0 0 1 2.21-.8 4 4 0 0 1 2.5.58l-.44 1.29a3.4 3.4 0 0 0-.9-.41 3.61 3.61 0 0 0-1.12-.2 1.61 1.61 0 0 0-1.19.43 1.49 1.49 0 0 0-.43 1.1 1.8 1.8 0 0 0 .16.75 1.57 1.57 0 0 0 .43.57 6.41 6.41 0 0 0 1.14.64l.89.42a3 3 0 0 1 2 3.11 2.65 2.65 0 0 1-1 2.07 3.86 3.86 0 0 1-2.62.85 4.34 4.34 0 0 1-2.44-.72zM142.7 169.84V159h1.48v10.84zM154.17 159.75l-.61 1.22a3.69 3.69 0 0 0-2.19-.83 3.29 3.29 0 0 0-2.69 1.2 4.85 4.85 0 0 0-1 3.17 4.54 4.54 0 0 0 1 3 3.26 3.26 0 0 0 2.63 1.15 2.64 2.64 0 0 0 1.92-.71v-2.54h-1.5v-1.26h3v4.72a4.45 4.45 0 0 1-1.65.81 7.36 7.36 0 0 1-2.08.32 4.42 4.42 0 0 1-3.54-1.52 6 6 0 0 1-1.3-4 5.83 5.83 0 0 1 1.42-4.08 4.94 4.94 0 0 1 3.84-1.57 4 4 0 0 1 2.75.92zM163.92 170l-5.6-7.93v7.78h-1.41V159h.59l5.46 7.5V159h1.41v11z"/></g></g></svg>